<?xml version="1.0" encoding="UTF-8" standalone="no"?>
<svg
   xmlns:dc="http://purl.org/dc/elements/1.1/"
   xmlns:cc="http://creativecommons.org/ns#"
   xmlns:rdf="http://www.w3.org/1999/02/22-rdf-syntax-ns#"
   xmlns:svg="http://www.w3.org/2000/svg"
   xmlns="http://www.w3.org/2000/svg"
   viewBox="0 0 121.52587 116.77373"
   height="116.77373"
   width="121.52587"
   xml:space="preserve"
   id="svg2"
   version="1.1"><metadata
     id="metadata8"><rdf:RDF><cc:Work
         rdf:about=""><dc:format>image/svg+xml</dc:format><dc:type
           rdf:resource="http://purl.org/dc/dcmitype/StillImage" /><dc:title></dc:title></cc:Work></rdf:RDF></metadata><defs
     id="defs6"><clipPath
       id="clipPath18"
       clipPathUnits="userSpaceOnUse"><path
         id="path16"
         d="M 0,87.58 H 91.144 V 0 H 0 Z" /></clipPath></defs><g
     transform="matrix(1.3333333,0,0,-1.3333333,0,116.77373)"
     id="g10"><g
       id="g12"><g
         clip-path="url(#clipPath18)"
         id="g14"><g
           transform="translate(50.9329,86.5718)"
           id="g20"><path
             id="path22"
             style="fill:#d72128;fill-opacity:1;fill-rule:nonzero;stroke:none"
             d="m 0,0 c -43.504,10.876 -74.309,-69.45 -27.577,-84.069 23.63,-7.392 56.653,1.606 65.525,26.763 C 47.73,-29.568 24.08,-7.934 0,0 -10.895,3.589 -15.564,-13.578 -4.728,-17.148 9.403,-21.804 27.386,-34.061 21.166,-51.492 15.519,-67.319 -8.617,-72.176 -22.85,-66.921 c -23.598,8.713 -3.351,55.142 18.122,49.773 C 6.377,-19.924 11.113,-2.779 0,0" /></g></g></g></g></svg>