<?xml version="1.0" encoding="UTF-8" standalone="no"?>
<svg
   xmlns:dc="http://purl.org/dc/elements/1.1/"
   xmlns:cc="http://creativecommons.org/ns#"
   xmlns:rdf="http://www.w3.org/1999/02/22-rdf-syntax-ns#"
   xmlns:svg="http://www.w3.org/2000/svg"
   xmlns="http://www.w3.org/2000/svg"
   viewBox="0 0 103.4108 80.580002"
   height="80.580002"
   width="103.4108"
   xml:space="preserve"
   id="svg2"
   version="1.1"><metadata
     id="metadata8"><rdf:RDF><cc:Work
         rdf:about=""><dc:format>image/svg+xml</dc:format><dc:type
           rdf:resource="http://purl.org/dc/dcmitype/StillImage" /><dc:title></dc:title></cc:Work></rdf:RDF></metadata><defs
     id="defs6"><clipPath
       id="clipPath18"
       clipPathUnits="userSpaceOnUse"><path
         id="path16"
         d="M 0,60.435 H 77.558 V 0 H 0 Z" /></clipPath></defs><g
     transform="matrix(1.3333333,0,0,-1.3333333,0,80.58)"
     id="g10"><g
       id="g12"><g
         clip-path="url(#clipPath18)"
         id="g14"><g
           transform="translate(22.0603,31.705)"
           id="g20"><path
             id="path22"
             style="fill:#000000;fill-opacity:1;fill-rule:nonzero;stroke:none"
             d="M 0,0 C 1.002,-4.103 2.005,-8.206 3.008,-12.308 -0.181,-9.939 -0.305,-4.294 0,0 M 6.643,-13.447 C 4.397,-6.184 2.711,1.199 1.224,8.652 1.502,9.858 1.834,11.025 2.207,12.16 3.814,3.581 5.798,-4.905 8.181,-13.304 7.669,-13.403 7.155,-13.454 6.643,-13.447 m 6.518,0.887 c 2.651,1.778 4.863,4.385 6.524,7.72 2.076,4.168 3.092,9.311 3.021,15.286 -0.043,3.562 -0.665,6.868 -1.497,10.123 0.78,-1.005 1.596,-1.982 2.432,-2.942 -0.01,-0.106 -0.002,-0.215 0.04,-0.322 3.881,-9.835 1.722,-21.082 -5.637,-29.352 -0.02,-0.023 -0.027,-0.052 -0.044,-0.077 -1.627,-0.099 -3.243,-0.243 -4.839,-0.436 m 10.026,0.596 c -1.101,0 -2.197,-0.029 -3.29,-0.071 6.439,7.817 8.634,17.919 5.987,27.197 6.204,-6.451 13.687,-11.672 21.889,-15.25 1.388,-5.018 -0.331,-10.772 -4.23,-14.219 -1.767,0.405 -3.539,0.758 -5.314,1.058 -0.135,0.117 -0.309,0.184 -0.497,0.165 -0.072,-0.003 -0.136,-0.028 -0.201,-0.051 -4.773,0.769 -9.567,1.171 -14.344,1.171 m 15.468,-2.793 c 1.578,-0.279 3.153,-0.603 4.724,-0.967 0.105,-0.056 0.217,-0.093 0.334,-0.093 0.011,0 0.021,0.005 0.033,0.006 1.31,-0.309 2.617,-0.646 3.921,-1.014 -0.6,-0.729 -1.312,-1.249 -2.084,-1.562 -0.214,0.02 -0.422,-0.049 -0.57,-0.199 -0.74,-0.191 -1.526,-0.192 -2.322,0.012 -1.999,0.515 -3.535,2.017 -4.036,3.817 m -0.401,-2.375 c 0.945,-1.338 2.375,-2.375 4.083,-2.815 0.518,-0.133 1.035,-0.198 1.544,-0.198 0.166,0 0.329,0.02 0.493,0.034 -1.279,-3.34 -2.334,-5.374 -4.171,-7.47 -2.299,0.806 -4.415,2.104 -6.176,3.786 1.108,1.293 1.886,2.631 2.76,4.166 0.43,0.757 0.904,1.59 1.467,2.497 m -5.045,-7.843 c 1.722,-1.605 3.745,-2.879 5.938,-3.733 -0.088,-0.089 -0.174,-0.178 -0.267,-0.269 -1.08,-1.061 -2.674,-1.368 -3.969,-0.77 -1.073,0.508 -1.772,1.412 -1.992,2.517 -0.156,0.784 -0.04,1.564 0.29,2.255 m 15.714,9.278 c -1.239,0.363 -2.484,0.69 -3.73,1 3.53,3.584 5.159,8.982 4.197,13.92 0.716,-0.29 1.438,-0.569 2.164,-0.834 1.857,-2.283 2.647,-5.159 2.115,-7.73 -0.55,-2.657 -2.357,-5.068 -4.746,-6.356 m -29.84,38.678 c 1.159,-4.078 2.153,-8.136 2.206,-12.552 0.003,-0.313 -0.008,-0.614 -0.01,-0.922 -0.35,-0.088 -0.705,-0.16 -1.068,-0.213 -1.395,5.585 -2.791,11.17 -4.186,16.756 0.219,-0.08 0.442,-0.151 0.646,-0.263 1.011,-0.555 1.827,-1.514 2.412,-2.806 m -3.838,3.273 C 16.665,20.57 18.084,14.883 19.504,9.199 19.16,9.168 18.812,9.16 18.463,9.155 c -1.359,5.741 -3.046,11.397 -4.217,17.183 0.343,0.005 0.676,-0.026 0.999,-0.084 M 9.956,24.773 13.643,9.766 c -0.559,0.144 -1.095,0.3 -1.583,0.473 -0.014,0.017 -0.022,0.041 -0.037,0.057 -1.174,4.33 -2.587,8.591 -3.753,12.924 0.558,0.613 1.118,1.127 1.686,1.553 m -3.2,-3.441 c 0.321,0.451 0.64,0.857 0.958,1.244 1.089,-3.981 2.362,-7.907 3.461,-11.884 -0.019,10e-4 -0.037,0.01 -0.056,0.01 -0.78,0 -1.568,-0.697 -2.252,-1.676 -0.907,3.851 -1.674,7.733 -2.586,11.583 0.16,0.239 0.308,0.489 0.475,0.723 m 7.423,-31.308 c -0.633,-0.576 -1.307,-1.079 -2.01,-1.53 -0.934,4.084 -2.138,8.081 -3.621,12.002 0.779,-0.249 1.544,-0.537 2.283,-0.884 0.83,-1.724 1.304,-3.717 1.93,-5.514 0.418,-1.203 0.737,-2.876 1.418,-4.074 m 2.143,2.363 c -0.501,-0.664 -1.039,-1.263 -1.599,-1.824 -0.202,0.488 -0.339,1.063 -0.49,1.483 -0.409,1.143 -0.808,2.29 -1.204,3.438 -0.405,1.175 -0.742,2.437 -1.204,3.618 0.883,-0.478 1.726,-1.025 2.524,-1.634 0.004,-0.031 0.003,-0.06 0.016,-0.094 0.653,-1.663 1.305,-3.325 1.957,-4.987 m 1.283,1.929 c -0.255,-0.431 -0.524,-0.836 -0.798,-1.234 -0.457,1.164 -0.913,2.327 -1.369,3.49 0.781,-0.691 1.507,-1.444 2.167,-2.256 M 11.119,9.636 C 11.517,9.499 11.812,7.85 10.831,5.237 9.986,2.988 8.799,1.736 8.279,1.704 8.244,1.714 8.206,1.728 8.171,1.738 8.04,1.831 7.87,2.192 7.875,2.947 7.88,3.844 8.118,4.963 8.543,6.096 c 0.856,2.279 2.066,3.54 2.576,3.54 M 5.742,19.791 C 6.641,15.928 7.409,12.035 8.336,8.178 8.035,7.636 7.765,7.056 7.545,6.471 7.445,6.205 7.36,5.939 7.279,5.675 6.652,9.877 5.781,14.039 4.8,18.172 c 0.302,0.55 0.613,1.093 0.942,1.619 m 6.6,6.244 c 0.404,0.128 0.8,0.218 1.187,0.271 1.16,-5.775 2.842,-11.418 4.204,-17.144 -0.504,0.016 -1.004,0.057 -1.501,0.116 -1.297,5.586 -2.593,11.171 -3.89,16.757 m -0.669,-0.251 3.81,-16.412 c -0.363,0.058 -0.716,0.13 -1.065,0.205 -1.279,5.209 -2.559,10.417 -3.838,15.625 0.359,0.226 0.723,0.423 1.093,0.582 M 21.267,8.391 c -0.159,-4.88 -1.114,-9.112 -2.85,-12.599 -0.083,-0.166 -0.177,-0.313 -0.262,-0.475 -2.278,2.68 -5.243,4.752 -8.546,5.954 0.885,0.785 1.692,2.185 2.22,3.591 0.542,1.442 0.822,2.978 0.691,4.119 1.866,-0.577 3.764,-0.889 5.546,-0.904 0.121,-0.097 0.301,-0.088 0.43,0.004 0.973,0.017 1.906,0.117 2.771,0.31 M 8.856,-13.088 C 6.372,-4.323 4.309,4.534 2.667,13.496 3.146,14.792 3.683,16.043 4.29,17.237 5.329,12.81 6.257,8.351 6.844,3.84 6.847,3.817 6.858,3.801 6.864,3.78 6.83,3.493 6.81,3.215 6.809,2.954 6.8,1.557 7.259,0.994 7.696,0.77 c 1.575,-4.099 2.838,-8.282 3.812,-12.56 -0.216,-0.173 -0.441,-0.335 -0.675,-0.482 -0.634,-0.319 -1.294,-0.589 -1.977,-0.816 M 0.283,3.057 c 0.139,1.314 0.343,2.582 0.578,3.826 1.393,-6.837 2.976,-13.612 5.028,-20.287 -0.689,0.082 -1.359,0.261 -1.975,0.551 -0.018,0.009 -0.032,0.021 -0.05,0.03 C 2.64,-7.816 1.416,-2.81 0.192,2.196 0.223,2.499 0.254,2.788 0.283,3.057 m -1.409,0.15 c -0.502,-4.716 -1.546,-14.53 4.438,-17.343 1.073,-0.505 2.256,-0.75 3.45,-0.75 0.582,0 1.167,0.065 1.743,0.18 4.728,0.878 9.666,1.324 14.682,1.324 4.652,0 9.322,-0.387 13.972,-1.128 0.07,-0.411 0.172,-0.813 0.322,-1.2 -0.77,-1.193 -1.385,-2.267 -1.926,-3.218 -0.937,-1.647 -1.678,-2.947 -2.829,-4.218 -1.076,-1.188 -1.512,-2.778 -1.197,-4.361 0.309,-1.55 1.293,-2.82 2.701,-3.486 0.672,-0.312 1.384,-0.462 2.089,-0.462 1.302,0 2.583,0.512 3.555,1.467 3.132,3.078 4.43,5.609 6.156,10.258 1.228,0.478 2.325,1.368 3.171,2.613 0.037,0.011 0.077,0.009 0.112,0.026 2.889,1.441 5.09,4.301 5.744,7.463 0.63,3.047 -0.319,6.44 -2.538,9.074 -0.08,0.096 -0.184,0.168 -0.301,0.21 -12.946,4.678 -24.359,13.509 -32.138,24.865 -0.095,0.139 -0.232,0.231 -0.383,0.276 -0.636,0.968 -1.421,1.726 -2.344,2.232 -1.581,0.867 -3.471,0.988 -5.466,0.35 C 9.619,26.654 7.622,24.993 5.601,22.153 1.924,16.985 -0.339,10.61 -1.126,3.207" /></g><g
           transform="translate(22.0603,31.705)"
           id="g24"><path
             id="path26"
             style="fill:none;stroke:#000000;stroke-width:0.5;stroke-linecap:butt;stroke-linejoin:miter;stroke-miterlimit:10;stroke-dasharray:none;stroke-opacity:1"
             d="M 0,0 C 1.002,-4.103 2.005,-8.206 3.008,-12.308 -0.181,-9.939 -0.305,-4.294 0,0 Z M 6.643,-13.447 C 4.397,-6.184 2.711,1.199 1.224,8.652 1.502,9.858 1.834,11.025 2.207,12.16 3.814,3.581 5.798,-4.905 8.181,-13.304 7.669,-13.403 7.155,-13.454 6.643,-13.447 Z m 6.518,0.887 c 2.651,1.778 4.863,4.385 6.524,7.72 2.076,4.168 3.092,9.311 3.021,15.286 -0.043,3.562 -0.665,6.868 -1.497,10.123 0.78,-1.005 1.596,-1.982 2.432,-2.942 -0.01,-0.106 -0.002,-0.215 0.04,-0.322 3.881,-9.835 1.722,-21.082 -5.637,-29.352 -0.02,-0.023 -0.027,-0.052 -0.044,-0.077 -1.627,-0.099 -3.243,-0.243 -4.839,-0.436 z m 10.026,0.596 c -1.101,0 -2.197,-0.029 -3.29,-0.071 6.439,7.817 8.634,17.919 5.987,27.197 6.204,-6.451 13.687,-11.672 21.889,-15.25 1.388,-5.018 -0.331,-10.772 -4.23,-14.219 -1.767,0.405 -3.539,0.758 -5.314,1.058 -0.135,0.117 -0.309,0.184 -0.497,0.165 -0.072,-0.003 -0.136,-0.028 -0.201,-0.051 -4.773,0.769 -9.567,1.171 -14.344,1.171 z m 15.468,-2.793 c 1.578,-0.279 3.153,-0.603 4.724,-0.967 0.105,-0.056 0.217,-0.093 0.334,-0.093 0.011,0 0.021,0.005 0.033,0.006 1.31,-0.309 2.617,-0.646 3.921,-1.014 -0.6,-0.729 -1.312,-1.249 -2.084,-1.562 -0.214,0.02 -0.422,-0.049 -0.57,-0.199 -0.74,-0.191 -1.526,-0.192 -2.322,0.012 -1.999,0.515 -3.535,2.017 -4.036,3.817 z m -0.401,-2.375 c 0.945,-1.338 2.375,-2.375 4.083,-2.815 0.518,-0.133 1.035,-0.198 1.544,-0.198 0.166,0 0.329,0.02 0.493,0.034 -1.279,-3.34 -2.334,-5.374 -4.171,-7.47 -2.299,0.806 -4.415,2.104 -6.176,3.786 1.108,1.293 1.886,2.631 2.76,4.166 0.43,0.757 0.904,1.59 1.467,2.497 z m -5.045,-7.843 c 1.722,-1.605 3.745,-2.879 5.938,-3.733 -0.088,-0.089 -0.174,-0.178 -0.267,-0.269 -1.08,-1.061 -2.674,-1.368 -3.969,-0.77 -1.073,0.508 -1.772,1.412 -1.992,2.517 -0.156,0.784 -0.04,1.564 0.29,2.255 z m 15.714,9.278 c -1.239,0.363 -2.484,0.69 -3.73,1 3.53,3.584 5.159,8.982 4.197,13.92 0.716,-0.29 1.438,-0.569 2.164,-0.834 1.857,-2.283 2.647,-5.159 2.115,-7.73 -0.55,-2.657 -2.357,-5.068 -4.746,-6.356 z m -29.84,38.678 c 1.159,-4.078 2.153,-8.136 2.206,-12.552 0.003,-0.313 -0.008,-0.614 -0.01,-0.922 -0.35,-0.088 -0.705,-0.16 -1.068,-0.213 -1.395,5.585 -2.791,11.17 -4.186,16.756 0.219,-0.08 0.442,-0.151 0.646,-0.263 1.011,-0.555 1.827,-1.514 2.412,-2.806 z m -3.838,3.273 C 16.665,20.57 18.084,14.883 19.504,9.199 19.16,9.168 18.812,9.16 18.463,9.155 c -1.359,5.741 -3.046,11.397 -4.217,17.183 0.343,0.005 0.676,-0.026 0.999,-0.084 z M 9.956,24.773 13.643,9.766 c -0.559,0.144 -1.095,0.3 -1.583,0.473 -0.014,0.017 -0.022,0.041 -0.037,0.057 -1.174,4.33 -2.587,8.591 -3.753,12.924 0.558,0.613 1.118,1.127 1.686,1.553 z m -3.2,-3.441 c 0.321,0.451 0.64,0.857 0.958,1.244 1.089,-3.981 2.362,-7.907 3.461,-11.884 -0.019,10e-4 -0.037,0.01 -0.056,0.01 -0.78,0 -1.568,-0.697 -2.252,-1.676 -0.907,3.851 -1.674,7.733 -2.586,11.583 0.16,0.239 0.308,0.489 0.475,0.723 z m 7.423,-31.308 c -0.633,-0.576 -1.307,-1.079 -2.01,-1.53 -0.934,4.084 -2.138,8.081 -3.621,12.002 0.779,-0.249 1.544,-0.537 2.283,-0.884 0.83,-1.724 1.304,-3.717 1.93,-5.514 0.418,-1.203 0.737,-2.876 1.418,-4.074 z m 2.143,2.363 c -0.501,-0.664 -1.039,-1.263 -1.599,-1.824 -0.202,0.488 -0.339,1.063 -0.49,1.483 -0.409,1.143 -0.808,2.29 -1.204,3.438 -0.405,1.175 -0.742,2.437 -1.204,3.618 0.883,-0.478 1.726,-1.025 2.524,-1.634 0.004,-0.031 0.003,-0.06 0.016,-0.094 0.653,-1.663 1.305,-3.325 1.957,-4.987 z m 1.283,1.929 c -0.255,-0.431 -0.524,-0.836 -0.798,-1.234 -0.457,1.164 -0.913,2.327 -1.369,3.49 0.781,-0.691 1.507,-1.444 2.167,-2.256 z M 11.119,9.636 C 11.517,9.499 11.812,7.85 10.831,5.237 9.986,2.988 8.799,1.736 8.279,1.704 8.244,1.714 8.206,1.728 8.171,1.738 8.04,1.831 7.87,2.192 7.875,2.947 7.88,3.844 8.118,4.963 8.543,6.096 c 0.856,2.279 2.066,3.54 2.576,3.54 z M 5.742,19.791 C 6.641,15.928 7.409,12.035 8.336,8.178 8.035,7.636 7.765,7.056 7.545,6.471 7.445,6.205 7.36,5.939 7.279,5.675 6.652,9.877 5.781,14.039 4.8,18.172 c 0.302,0.55 0.613,1.093 0.942,1.619 z m 6.6,6.244 c 0.404,0.128 0.8,0.218 1.187,0.271 1.16,-5.775 2.842,-11.418 4.204,-17.144 -0.504,0.016 -1.004,0.057 -1.501,0.116 -1.297,5.586 -2.593,11.171 -3.89,16.757 z m -0.669,-0.251 3.81,-16.412 c -0.363,0.058 -0.716,0.13 -1.065,0.205 -1.279,5.209 -2.559,10.417 -3.838,15.625 0.359,0.226 0.723,0.423 1.093,0.582 z M 21.267,8.391 c -0.159,-4.88 -1.114,-9.112 -2.85,-12.599 -0.083,-0.166 -0.177,-0.313 -0.262,-0.475 -2.278,2.68 -5.243,4.752 -8.546,5.954 0.885,0.785 1.692,2.185 2.22,3.591 0.542,1.442 0.822,2.978 0.691,4.119 1.866,-0.577 3.764,-0.889 5.546,-0.904 0.121,-0.097 0.301,-0.088 0.43,0.004 0.973,0.017 1.906,0.117 2.771,0.31 z M 8.856,-13.088 C 6.372,-4.323 4.309,4.534 2.667,13.496 3.146,14.792 3.683,16.043 4.29,17.237 5.329,12.81 6.257,8.351 6.844,3.84 6.847,3.817 6.858,3.801 6.864,3.78 6.83,3.493 6.81,3.215 6.809,2.954 6.8,1.557 7.259,0.994 7.696,0.77 c 1.575,-4.099 2.838,-8.282 3.812,-12.56 -0.216,-0.173 -0.441,-0.335 -0.675,-0.482 -0.634,-0.319 -1.294,-0.589 -1.977,-0.816 z M 0.283,3.057 c 0.139,1.314 0.343,2.582 0.578,3.826 1.393,-6.837 2.976,-13.612 5.028,-20.287 -0.689,0.082 -1.359,0.261 -1.975,0.551 -0.018,0.009 -0.032,0.021 -0.05,0.03 C 2.64,-7.816 1.416,-2.81 0.192,2.196 0.223,2.499 0.254,2.788 0.283,3.057 Z m -1.409,0.15 c -0.502,-4.716 -1.546,-14.53 4.438,-17.343 1.073,-0.505 2.256,-0.75 3.45,-0.75 0.582,0 1.167,0.065 1.743,0.18 4.728,0.878 9.666,1.324 14.682,1.324 4.652,0 9.322,-0.387 13.972,-1.128 0.07,-0.411 0.172,-0.813 0.322,-1.2 -0.77,-1.193 -1.385,-2.267 -1.926,-3.218 -0.937,-1.647 -1.678,-2.947 -2.829,-4.218 -1.076,-1.188 -1.512,-2.778 -1.197,-4.361 0.309,-1.55 1.293,-2.82 2.701,-3.486 0.672,-0.312 1.384,-0.462 2.089,-0.462 1.302,0 2.583,0.512 3.555,1.467 3.132,3.078 4.43,5.609 6.156,10.258 1.228,0.478 2.325,1.368 3.171,2.613 0.037,0.011 0.077,0.009 0.112,0.026 2.889,1.441 5.09,4.301 5.744,7.463 0.63,3.047 -0.319,6.44 -2.538,9.074 -0.08,0.096 -0.184,0.168 -0.301,0.21 -12.946,4.678 -24.359,13.509 -32.138,24.865 -0.095,0.139 -0.232,0.231 -0.383,0.276 -0.636,0.968 -1.421,1.726 -2.344,2.232 -1.581,0.867 -3.471,0.988 -5.466,0.35 C 9.619,26.654 7.622,24.993 5.601,22.153 1.924,16.985 -0.339,10.61 -1.126,3.207 Z" /></g><g
           transform="translate(0.9167,46.7841)"
           id="g28"><path
             id="path30"
             style="fill:#000000;fill-opacity:1;fill-rule:nonzero;stroke:none"
             d="M 0,0 C 5.912,-1.27 11.824,-2.539 17.735,-3.809 18.407,-3.953 18.122,-4.98 17.452,-4.836 11.54,-3.567 5.628,-2.297 -0.283,-1.028 -0.955,-0.883 -0.67,0.144 0,0" /></g><g
           transform="translate(0.9167,46.7841)"
           id="g32"><path
             id="path34"
             style="fill:none;stroke:#000000;stroke-width:0.5;stroke-linecap:butt;stroke-linejoin:miter;stroke-miterlimit:10;stroke-dasharray:none;stroke-opacity:1"
             d="M 0,0 C 5.912,-1.27 11.824,-2.539 17.735,-3.809 18.407,-3.953 18.122,-4.98 17.452,-4.836 11.54,-3.567 5.628,-2.297 -0.283,-1.028 -0.955,-0.883 -0.67,0.144 0,0 Z" /></g><g
           transform="translate(2.1872,29.7318)"
           id="g36"><path
             id="path38"
             style="fill:#000000;fill-opacity:1;fill-rule:nonzero;stroke:none"
             d="M 0,0 C 4.413,0.914 8.825,1.828 13.238,2.742 13.909,2.881 14.194,1.854 13.521,1.714 9.109,0.8 4.696,-0.114 0.283,-1.028 -0.387,-1.167 -0.673,-0.14 0,0" /></g><g
           transform="translate(2.1872,29.7318)"
           id="g40"><path
             id="path42"
             style="fill:none;stroke:#000000;stroke-width:0.5;stroke-linecap:butt;stroke-linejoin:miter;stroke-miterlimit:10;stroke-dasharray:none;stroke-opacity:1"
             d="M 0,0 C 4.413,0.914 8.825,1.828 13.238,2.742 13.909,2.881 14.194,1.854 13.521,1.714 9.109,0.8 4.696,-0.114 0.283,-1.028 -0.387,-1.167 -0.673,-0.14 0,0 Z" /></g><g
           transform="translate(20.5788,50.7592)"
           id="g44"><path
             id="path46"
             style="fill:#000000;fill-opacity:1;fill-rule:nonzero;stroke:none"
             d="m 0,0 c -3.493,2.848 -6.985,5.695 -10.478,8.543 -0.533,0.435 0.226,1.185 0.754,0.754 C -6.231,6.449 -2.739,3.602 0.753,0.754 1.287,0.319 0.528,-0.431 0,0" /></g><g
           transform="translate(20.5788,50.7592)"
           id="g48"><path
             id="path50"
             style="fill:none;stroke:#000000;stroke-width:0.5;stroke-linecap:butt;stroke-linejoin:miter;stroke-miterlimit:10;stroke-dasharray:none;stroke-opacity:1"
             d="m 0,0 c -3.493,2.848 -6.985,5.695 -10.478,8.543 -0.533,0.435 0.226,1.185 0.754,0.754 C -6.231,6.449 -2.739,3.602 0.753,0.754 1.287,0.319 0.528,-0.431 0,0 Z" /></g></g></g></g></svg>