<?xml version="1.0" encoding="UTF-8" standalone="no"?>
<svg
   xmlns:dc="http://purl.org/dc/elements/1.1/"
   xmlns:cc="http://creativecommons.org/ns#"
   xmlns:rdf="http://www.w3.org/1999/02/22-rdf-syntax-ns#"
   xmlns:svg="http://www.w3.org/2000/svg"
   xmlns="http://www.w3.org/2000/svg"
   viewBox="0 0 120.24853 70.18853"
   height="70.18853"
   width="120.24853"
   xml:space="preserve"
   id="svg2"
   version="1.1"><metadata
     id="metadata8"><rdf:RDF><cc:Work
         rdf:about=""><dc:format>image/svg+xml</dc:format><dc:type
           rdf:resource="http://purl.org/dc/dcmitype/StillImage" /><dc:title></dc:title></cc:Work></rdf:RDF></metadata><defs
     id="defs6"><clipPath
       id="clipPath18"
       clipPathUnits="userSpaceOnUse"><path
         id="path16"
         d="M 0,52.641 H 90.186 V 0 H 0 Z" /></clipPath></defs><g
     transform="matrix(1.3333333,0,0,-1.3333333,0,70.188533)"
     id="g10"><g
       id="g12"><g
         clip-path="url(#clipPath18)"
         id="g14"><g
           transform="translate(63.788,2.599)"
           id="g20"><path
             id="path22"
             style="fill:#000000;fill-opacity:1;fill-rule:nonzero;stroke:none"
             d="m 0,0 c -4.783,2.811 -9.734,5.886 -14.53,8.864 -4.73,2.938 -9.603,5.958 -14.332,8.742 L 16.42,47.229 C 13.7,39.538 11.016,31.748 8.414,24.193 5.682,16.259 2.859,8.063 0,0 m -34.685,1.077 c 0.023,0.315 0.045,0.63 0.068,0.944 0.622,1.912 1.295,3.861 1.962,5.778 1.009,2.902 2.05,5.895 2.881,8.706 2.352,-1.383 4.746,-2.83 7.14,-4.298 z m -8.336,17.399 c -0.031,3.516 0.393,6.967 1.327,10.377 0.014,0.053 0.015,0.102 0.009,0.149 l 2.315,0.748 c -0.638,-5.311 -1.228,-10.627 -1.861,-15.938 -0.599,1.542 -1.198,3.099 -1.79,4.664 m -2.658,7.46 c -0.176,0.536 -0.354,1.072 -0.521,1.606 l 0.807,0.261 c -0.095,-0.622 -0.191,-1.245 -0.286,-1.867 m 1.1,2.129 2.068,0.669 c -0.721,-2.72 -1.147,-5.464 -1.266,-8.251 -0.474,1.284 -0.936,2.567 -1.375,3.848 0.19,1.245 0.381,2.49 0.573,3.734 m -15.988,9.473 c 22.895,2.206 45.944,5.246 68.681,9.049 L -46.993,28.774 c -2.569,1.607 -5.084,3.248 -7.518,4.841 -1.969,1.288 -3.992,2.612 -6.056,3.923 m 73.184,9.015 0.362,0.117 -0.371,-0.242 c 0.002,0.041 0.007,0.083 0.009,0.125 M 9.675,44.509 c -0.025,0.359 -0.05,0.718 -0.053,1.076 l 2.208,0.714 c -0.011,-0.133 -0.016,-0.267 -0.028,-0.4 z m -3.56,-0.058 2.781,0.899 c 0.027,-0.44 0.06,-0.879 0.051,-1.317 L 6.115,42.18 Z m -2.879,-0.93 2.111,0.682 V 41.677 L 3.225,40.289 c 0.002,1.077 0.008,2.154 0.011,3.232 M 0.501,42.637 2.467,43.271 C 2.463,42.11 2.454,40.947 2.453,39.785 L 0.407,38.446 c 0.025,1.398 0.074,2.793 0.094,4.191 m -3.2,-1.034 2.426,0.784 c -0.027,-1.485 -0.086,-2.967 -0.1,-4.45 l -2.191,-1.434 c 0.072,1.701 -0.124,3.396 -0.135,5.1 m -3.244,-1.049 2.478,0.8 c 0.032,-1.791 0.259,-3.574 0.113,-5.367 l -2.835,-1.854 c 0.085,2.139 0.149,4.281 0.244,6.421 m -4.578,-1.48 3.798,1.228 c -0.094,-2.228 -0.158,-4.457 -0.253,-6.685 l -3.544,-2.318 v 7.764 z m -3.197,-1.033 2.43,0.785 v -8.03 l -2.672,-1.748 c 0.079,2.998 0.163,5.995 0.242,8.993 m -2.933,-0.948 2.158,0.697 c -0.082,-3.084 -0.169,-6.169 -0.25,-9.254 l -2.559,-1.674 c 0.235,3.342 0.468,6.684 0.701,10.027 0.006,0.084 -0.017,0.148 -0.05,0.204 m -3.432,-1.11 2.712,0.877 c -0.245,-3.508 -0.49,-7.016 -0.736,-10.525 l -2.736,-1.789 c 0.253,3.812 0.507,7.625 0.76,11.437 m -2.598,-0.838 1.812,0.584 c -0.259,-3.903 -0.518,-7.806 -0.777,-11.709 l -2.579,-1.686 c 0.515,4.27 1.03,8.54 1.544,12.811 m -3.766,-1.218 2.967,0.959 -1.58,-13.099 -2.365,-1.547 c 0.326,4.563 0.652,9.124 0.978,13.687 m -3.831,-15.554 c 0.301,4.856 0.604,9.712 0.906,14.567 0.001,0.015 -0.005,0.026 -0.006,0.039 l 2.144,0.693 c -0.332,-4.653 -0.664,-9.306 -0.997,-13.959 z m -2.18,13.61 2.304,0.746 c -0.319,-5.123 -0.638,-10.246 -0.956,-15.368 -0.005,-0.08 0.015,-0.141 0.046,-0.196 -0.833,-2.855 -1.894,-5.922 -2.93,-8.901 -0.073,-0.21 -0.146,-0.424 -0.219,-0.634 0.585,8.118 1.17,16.236 1.755,24.353 m -3.943,-1.274 c -0.534,-7.998 -1.246,-15.979 -2.136,-23.944 -0.689,1.855 -1.398,3.701 -2.108,5.53 l 0.007,0.02 c 0.715,5.895 1.357,11.798 2.067,17.693 z M -36.468,0.896 c -0.464,1.413 -0.965,2.83 -1.477,4.247 0.985,8.588 1.759,17.195 2.331,25.821 l 2.369,0.765 -1.94,-26.917 c -0.448,-1.318 -0.883,-2.63 -1.283,-3.916 m 54.924,47.836 0.001,0.021 c 0.033,0.101 0.041,0.208 0.025,0.316 -0.003,0.027 -0.012,0.049 -0.019,0.076 -0.012,0.043 -0.016,0.087 -0.035,0.13 -0.02,0.04 -0.051,0.071 -0.077,0.106 -0.01,0.014 -0.01,0.033 -0.022,0.047 -0.007,0.007 -0.024,0.016 -0.024,0.016 -0.075,0.08 -0.161,0.143 -0.261,0.182 -0.022,0.009 -0.044,0.01 -0.066,0.016 -0.085,0.024 -0.172,0.03 -0.263,0.02 -0.018,-0.002 -0.033,0.008 -0.051,0.005 -26.541,-4.715 -53.602,-8.387 -80.435,-10.916 -0.302,-0.028 -0.553,-0.246 -0.623,-0.542 -0.07,-0.296 0.057,-0.604 0.315,-0.765 2.665,-1.662 5.271,-3.366 7.793,-5.015 2.456,-1.607 4.994,-3.267 7.594,-4.892 1.489,-4.841 3.407,-9.778 5.262,-14.557 1.878,-4.834 3.821,-9.833 5.305,-14.702 l 0.008,-0.017 c 0.008,-0.023 0.021,-0.041 0.031,-0.063 0.026,-0.059 0.059,-0.114 0.1,-0.163 0.007,-0.01 0.009,-0.021 0.018,-0.03 0.011,-0.012 0.026,-0.016 0.037,-0.026 0.049,-0.047 0.103,-0.085 0.163,-0.117 0.023,-0.011 0.042,-0.025 0.065,-0.034 0.081,-0.031 0.169,-0.052 0.259,-0.052 0.083,0.001 0.165,0.018 0.239,0.045 0.02,0.007 0.038,0.022 0.059,0.032 0.055,0.026 0.108,0.056 0.155,0.096 l 0.024,0.016 14.586,13.471 c 2.045,-1.258 4.088,-2.525 6.103,-3.776 5.051,-3.138 10.274,-6.382 15.301,-9.317 0.182,-0.106 0.402,-0.124 0.601,-0.054 0.198,0.073 0.354,0.23 0.425,0.429 2.959,8.329 5.881,16.811 8.706,25.013 2.823,8.2 5.743,16.678 8.701,25.001" /></g><g
           transform="translate(63.788,2.599)"
           id="g24"><path
             id="path26"
             style="fill:none;stroke:#000000;stroke-width:0.75;stroke-linecap:butt;stroke-linejoin:miter;stroke-miterlimit:10;stroke-dasharray:none;stroke-opacity:1"
             d="m 0,0 c -4.783,2.811 -9.734,5.886 -14.53,8.864 -4.73,2.938 -9.603,5.958 -14.332,8.742 L 16.42,47.229 C 13.7,39.538 11.016,31.748 8.414,24.193 5.682,16.259 2.859,8.063 0,0 Z m -34.685,1.077 c 0.023,0.315 0.045,0.63 0.068,0.944 0.622,1.912 1.295,3.861 1.962,5.778 1.009,2.902 2.05,5.895 2.881,8.706 2.352,-1.383 4.746,-2.83 7.14,-4.298 z m -8.336,17.399 c -0.031,3.516 0.393,6.967 1.327,10.377 0.014,0.053 0.015,0.102 0.009,0.149 l 2.315,0.748 c -0.638,-5.311 -1.228,-10.627 -1.861,-15.938 -0.599,1.542 -1.198,3.099 -1.79,4.664 z m -2.658,7.46 c -0.176,0.536 -0.354,1.072 -0.521,1.606 l 0.807,0.261 c -0.095,-0.622 -0.191,-1.245 -0.286,-1.867 z m 1.1,2.129 2.068,0.669 c -0.721,-2.72 -1.147,-5.464 -1.266,-8.251 -0.474,1.284 -0.936,2.567 -1.375,3.848 0.19,1.245 0.381,2.49 0.573,3.734 z m -15.988,9.473 c 22.895,2.206 45.944,5.246 68.681,9.049 L -46.993,28.774 c -2.569,1.607 -5.084,3.248 -7.518,4.841 -1.969,1.288 -3.992,2.612 -6.056,3.923 z m 73.184,9.015 0.362,0.117 -0.371,-0.242 c 0.002,0.041 0.007,0.083 0.009,0.125 z M 9.675,44.509 c -0.025,0.359 -0.05,0.718 -0.053,1.076 l 2.208,0.714 c -0.011,-0.133 -0.016,-0.267 -0.028,-0.4 z m -3.56,-0.058 2.781,0.899 c 0.027,-0.44 0.06,-0.879 0.051,-1.317 L 6.115,42.18 Z m -2.879,-0.93 2.111,0.682 V 41.677 L 3.225,40.289 c 0.002,1.077 0.008,2.154 0.011,3.232 z M 0.501,42.637 2.467,43.271 C 2.463,42.11 2.454,40.947 2.453,39.785 L 0.407,38.446 c 0.025,1.398 0.074,2.793 0.094,4.191 z m -3.2,-1.034 2.426,0.784 c -0.027,-1.485 -0.086,-2.967 -0.1,-4.45 l -2.191,-1.434 c 0.072,1.701 -0.124,3.396 -0.135,5.1 z m -3.244,-1.049 2.478,0.8 c 0.032,-1.791 0.259,-3.574 0.113,-5.367 l -2.835,-1.854 c 0.085,2.139 0.149,4.281 0.244,6.421 z m -4.578,-1.48 3.798,1.228 c -0.094,-2.228 -0.158,-4.457 -0.253,-6.685 l -3.544,-2.318 v 7.764 z m -3.197,-1.033 2.43,0.785 v -8.03 l -2.672,-1.748 c 0.079,2.998 0.163,5.995 0.242,8.993 z m -2.933,-0.948 2.158,0.697 c -0.082,-3.084 -0.169,-6.169 -0.25,-9.254 l -2.559,-1.674 c 0.235,3.342 0.468,6.684 0.701,10.027 0.006,0.084 -0.017,0.148 -0.05,0.204 z m -3.432,-1.11 2.712,0.877 c -0.245,-3.508 -0.49,-7.016 -0.736,-10.525 l -2.736,-1.789 c 0.253,3.812 0.507,7.625 0.76,11.437 z m -2.598,-0.838 1.812,0.584 c -0.259,-3.903 -0.518,-7.806 -0.777,-11.709 l -2.579,-1.686 c 0.515,4.27 1.03,8.54 1.544,12.811 z m -3.766,-1.218 2.967,0.959 -1.58,-13.099 -2.365,-1.547 c 0.326,4.563 0.652,9.124 0.978,13.687 z m -3.831,-15.554 c 0.301,4.856 0.604,9.712 0.906,14.567 0.001,0.015 -0.005,0.026 -0.006,0.039 l 2.144,0.693 c -0.332,-4.653 -0.664,-9.306 -0.997,-13.959 z m -2.18,13.61 2.304,0.746 c -0.319,-5.123 -0.638,-10.246 -0.956,-15.368 -0.005,-0.08 0.015,-0.141 0.046,-0.196 -0.833,-2.855 -1.894,-5.922 -2.93,-8.901 -0.073,-0.21 -0.146,-0.424 -0.219,-0.634 0.585,8.118 1.17,16.236 1.755,24.353 z m -3.943,-1.274 c -0.534,-7.998 -1.246,-15.979 -2.136,-23.944 -0.689,1.855 -1.398,3.701 -2.108,5.53 l 0.007,0.02 c 0.715,5.895 1.357,11.798 2.067,17.693 z M -36.468,0.896 c -0.464,1.413 -0.965,2.83 -1.477,4.247 0.985,8.588 1.759,17.195 2.331,25.821 l 2.369,0.765 -1.94,-26.917 c -0.448,-1.318 -0.883,-2.63 -1.283,-3.916 z m 54.924,47.836 0.001,0.021 c 0.033,0.101 0.041,0.208 0.025,0.316 -0.003,0.027 -0.012,0.049 -0.019,0.076 -0.012,0.043 -0.016,0.087 -0.035,0.13 -0.02,0.04 -0.051,0.071 -0.077,0.106 -0.01,0.014 -0.01,0.033 -0.022,0.047 -0.007,0.007 -0.024,0.016 -0.024,0.016 -0.075,0.08 -0.161,0.143 -0.261,0.182 -0.022,0.009 -0.044,0.01 -0.066,0.016 -0.085,0.024 -0.172,0.03 -0.263,0.02 -0.018,-0.002 -0.033,0.008 -0.051,0.005 -26.541,-4.715 -53.602,-8.387 -80.435,-10.916 -0.302,-0.028 -0.553,-0.246 -0.623,-0.542 -0.07,-0.296 0.057,-0.604 0.315,-0.765 2.665,-1.662 5.271,-3.366 7.793,-5.015 2.456,-1.607 4.994,-3.267 7.594,-4.892 1.489,-4.841 3.407,-9.778 5.262,-14.557 1.878,-4.834 3.821,-9.833 5.305,-14.702 l 0.008,-0.017 c 0.008,-0.023 0.021,-0.041 0.031,-0.063 0.026,-0.059 0.059,-0.114 0.1,-0.163 0.007,-0.01 0.009,-0.021 0.018,-0.03 0.011,-0.012 0.026,-0.016 0.037,-0.026 0.049,-0.047 0.103,-0.085 0.163,-0.117 0.023,-0.011 0.042,-0.025 0.065,-0.034 0.081,-0.031 0.169,-0.052 0.259,-0.052 0.083,0.001 0.165,0.018 0.239,0.045 0.02,0.007 0.038,0.022 0.059,0.032 0.055,0.026 0.108,0.056 0.155,0.096 l 0.024,0.016 14.586,13.471 c 2.045,-1.258 4.088,-2.525 6.103,-3.776 5.051,-3.138 10.274,-6.382 15.301,-9.317 0.182,-0.106 0.402,-0.124 0.601,-0.054 0.198,0.073 0.354,0.23 0.425,0.429 2.959,8.329 5.881,16.811 8.706,25.013 2.823,8.2 5.743,16.678 8.701,25.001 z" /></g><g
           transform="translate(85.7304,40.7065)"
           id="g28"><path
             id="path30"
             style="fill:#000000;fill-opacity:1;fill-rule:nonzero;stroke:none"
             d="m 0,0 c 0.496,1.014 0.762,1.603 0.762,1.603 0,0 -0.382,-0.522 -1.019,-1.453 -0.315,-0.466 -0.699,-1.034 -1.139,-1.684 -0.219,-0.325 -0.454,-0.672 -0.7,-1.036 -0.236,-0.372 -0.455,-0.784 -0.7,-1.202 -0.484,-0.841 -1.009,-1.755 -1.546,-2.734 -0.559,-0.969 -1.024,-2.043 -1.55,-3.139 -0.505,-1.103 -1.085,-2.221 -1.513,-3.424 -0.461,-1.189 -0.929,-2.398 -1.398,-3.606 -0.385,-1.237 -0.77,-2.474 -1.149,-3.693 -0.415,-1.207 -0.655,-2.444 -0.946,-3.622 -0.27,-1.184 -0.577,-2.317 -0.739,-3.419 -0.187,-1.097 -0.345,-2.137 -0.489,-3.096 -0.069,-0.479 -0.151,-0.936 -0.199,-1.375 -0.034,-0.441 -0.067,-0.86 -0.097,-1.253 -0.06,-0.785 -0.113,-1.47 -0.156,-2.033 -0.081,-1.126 -0.106,-1.77 -0.106,-1.77 0,0 0.161,0.629 0.402,1.73 0.258,1.098 0.524,2.68 1.023,4.539 0.238,0.932 0.493,1.939 0.742,3.009 0.235,1.072 0.627,2.169 0.928,3.326 0.325,1.152 0.648,2.345 1.058,3.532 0.388,1.194 0.784,2.406 1.179,3.618 0.445,1.196 0.889,2.391 1.327,3.568 0.415,1.186 0.907,2.32 1.369,3.424 0.484,1.092 0.858,2.199 1.341,3.179 0.457,0.998 0.888,1.942 1.287,2.812 C -1.266,-2.437 -0.479,-1.017 0,0" /></g><g
           transform="translate(85.7304,40.7065)"
           id="g32"><path
             id="path34"
             style="fill:none;stroke:#000000;stroke-width:0.75;stroke-linecap:butt;stroke-linejoin:miter;stroke-miterlimit:10;stroke-dasharray:none;stroke-opacity:1"
             d="m 0,0 c 0.496,1.014 0.762,1.603 0.762,1.603 0,0 -0.382,-0.522 -1.019,-1.453 -0.315,-0.466 -0.699,-1.034 -1.139,-1.684 -0.219,-0.325 -0.454,-0.672 -0.7,-1.036 -0.236,-0.372 -0.455,-0.784 -0.7,-1.202 -0.484,-0.841 -1.009,-1.755 -1.546,-2.734 -0.559,-0.969 -1.024,-2.043 -1.55,-3.139 -0.505,-1.103 -1.085,-2.221 -1.513,-3.424 -0.461,-1.189 -0.929,-2.398 -1.398,-3.606 -0.385,-1.237 -0.77,-2.474 -1.149,-3.693 -0.415,-1.207 -0.655,-2.444 -0.946,-3.622 -0.27,-1.184 -0.577,-2.317 -0.739,-3.419 -0.187,-1.097 -0.345,-2.137 -0.489,-3.096 -0.069,-0.479 -0.151,-0.936 -0.199,-1.375 -0.034,-0.441 -0.067,-0.86 -0.097,-1.253 -0.06,-0.785 -0.113,-1.47 -0.156,-2.033 -0.081,-1.126 -0.106,-1.77 -0.106,-1.77 0,0 0.161,0.629 0.402,1.73 0.258,1.098 0.524,2.68 1.023,4.539 0.238,0.932 0.493,1.939 0.742,3.009 0.235,1.072 0.627,2.169 0.928,3.326 0.325,1.152 0.648,2.345 1.058,3.532 0.388,1.194 0.784,2.406 1.179,3.618 0.445,1.196 0.889,2.391 1.327,3.568 0.415,1.186 0.907,2.32 1.369,3.424 0.484,1.092 0.858,2.199 1.341,3.179 0.457,0.998 0.888,1.942 1.287,2.812 C -1.266,-2.437 -0.479,-1.017 0,0 Z" /></g><g
           transform="translate(88.288,29.7787)"
           id="g36"><path
             id="path38"
             style="fill:#000000;fill-opacity:1;fill-rule:nonzero;stroke:none"
             d="m 0,0 c -0.212,-0.271 -0.469,-0.602 -0.764,-0.979 -0.145,-0.191 -0.299,-0.394 -0.462,-0.608 -0.151,-0.224 -0.282,-0.479 -0.434,-0.737 -0.298,-0.519 -0.624,-1.085 -0.949,-1.698 -0.352,-0.605 -0.57,-1.29 -0.855,-1.987 -0.26,-0.703 -0.592,-1.413 -0.744,-2.189 -0.189,-0.767 -0.382,-1.545 -0.575,-2.323 -0.095,-0.796 -0.189,-1.592 -0.282,-2.376 -0.135,-0.78 -0.073,-1.562 -0.078,-2.311 0.021,-0.75 -0.019,-1.476 0.098,-2.156 0.088,-0.682 0.191,-1.323 0.286,-1.911 0.052,-0.294 0.084,-0.577 0.146,-0.841 0.077,-0.262 0.15,-0.51 0.219,-0.743 0.144,-0.462 0.27,-0.865 0.373,-1.197 0.215,-0.657 0.351,-1.025 0.351,-1.025 0,0 -0.011,0.401 -0.052,1.088 -0.025,0.341 -0.055,0.755 -0.091,1.229 -0.052,0.469 -0.084,1 -0.068,1.583 0.003,0.581 0.003,1.207 -0.017,1.866 -0.04,0.658 0.093,1.353 0.109,2.068 0.044,0.716 0.069,1.455 0.2,2.196 0.106,0.744 0.211,1.499 0.318,2.254 0.167,0.744 0.333,1.488 0.498,2.221 0.135,0.741 0.375,1.441 0.586,2.126 0.238,0.673 0.36,1.378 0.626,1.971 0.249,0.602 0.466,1.184 0.668,1.727 0.104,0.272 0.203,0.531 0.297,0.779 0.117,0.243 0.227,0.472 0.331,0.688 0.203,0.434 0.379,0.813 0.525,1.126 C 0.542,0.47 0.691,0.837 0.691,0.837 0.691,0.837 0.433,0.537 0,0" /></g><g
           transform="translate(88.288,29.7787)"
           id="g40"><path
             id="path42"
             style="fill:none;stroke:#000000;stroke-width:0.75;stroke-linecap:butt;stroke-linejoin:miter;stroke-miterlimit:10;stroke-dasharray:none;stroke-opacity:1"
             d="m 0,0 c -0.212,-0.271 -0.469,-0.602 -0.764,-0.979 -0.145,-0.191 -0.299,-0.394 -0.462,-0.608 -0.151,-0.224 -0.282,-0.479 -0.434,-0.737 -0.298,-0.519 -0.624,-1.085 -0.949,-1.698 -0.352,-0.605 -0.57,-1.29 -0.855,-1.987 -0.26,-0.703 -0.592,-1.413 -0.744,-2.189 -0.189,-0.767 -0.382,-1.545 -0.575,-2.323 -0.095,-0.796 -0.189,-1.592 -0.282,-2.376 -0.135,-0.78 -0.073,-1.562 -0.078,-2.311 0.021,-0.75 -0.019,-1.476 0.098,-2.156 0.088,-0.682 0.191,-1.323 0.286,-1.911 0.052,-0.294 0.084,-0.577 0.146,-0.841 0.077,-0.262 0.15,-0.51 0.219,-0.743 0.144,-0.462 0.27,-0.865 0.373,-1.197 0.215,-0.657 0.351,-1.025 0.351,-1.025 0,0 -0.011,0.401 -0.052,1.088 -0.025,0.341 -0.055,0.755 -0.091,1.229 -0.052,0.469 -0.084,1 -0.068,1.583 0.003,0.581 0.003,1.207 -0.017,1.866 -0.04,0.658 0.093,1.353 0.109,2.068 0.044,0.716 0.069,1.455 0.2,2.196 0.106,0.744 0.211,1.499 0.318,2.254 0.167,0.744 0.333,1.488 0.498,2.221 0.135,0.741 0.375,1.441 0.586,2.126 0.238,0.673 0.36,1.378 0.626,1.971 0.249,0.602 0.466,1.184 0.668,1.727 0.104,0.272 0.203,0.531 0.297,0.779 0.117,0.243 0.227,0.472 0.331,0.688 0.203,0.434 0.379,0.813 0.525,1.126 C 0.542,0.47 0.691,0.837 0.691,0.837 0.691,0.837 0.433,0.537 0,0 Z" /></g></g></g></g></svg>