<?xml version="1.0" encoding="UTF-8" standalone="no"?>
<svg
   xmlns:dc="http://purl.org/dc/elements/1.1/"
   xmlns:cc="http://creativecommons.org/ns#"
   xmlns:rdf="http://www.w3.org/1999/02/22-rdf-syntax-ns#"
   xmlns:svg="http://www.w3.org/2000/svg"
   xmlns="http://www.w3.org/2000/svg"
   viewBox="0 0 298.32266 145.30533"
   height="145.30533"
   width="298.32266"
   xml:space="preserve"
   id="svg2"
   version="1.1"><metadata
     id="metadata8"><rdf:RDF><cc:Work
         rdf:about=""><dc:format>image/svg+xml</dc:format><dc:type
           rdf:resource="http://purl.org/dc/dcmitype/StillImage" /><dc:title></dc:title></cc:Work></rdf:RDF></metadata><defs
     id="defs6"><clipPath
       id="clipPath18"
       clipPathUnits="userSpaceOnUse"><path
         id="path16"
         d="M 0,108.979 H 223.742 V 0 H 0 Z" /></clipPath></defs><g
     transform="matrix(1.3333333,0,0,-1.3333333,0,145.30533)"
     id="g10"><g
       id="g12"><g
         clip-path="url(#clipPath18)"
         id="g14"><g
           transform="translate(184.6594,20.9162)"
           id="g20"><path
             id="path22"
             style="fill:#000000;fill-opacity:1;fill-rule:nonzero;stroke:none"
             d="m 0,0 c 0.159,0 0.316,-0.039 0.457,-0.114 7.223,-3.844 13.856,-8.845 19.436,-14.628 -0.899,2.41 -1.708,4.872 -2.274,7.396 -0.419,1.874 -0.839,4.342 -0.366,6.814 0.364,1.912 1.286,3.662 2.597,4.93 0.065,0.064 0.139,0.119 0.22,0.161 0.989,0.524 1.839,1.034 2.603,1.559 6.218,4.277 9.405,10.589 10.983,15.132 2.186,6.291 2.688,12.908 2.891,18.551 0.227,6.315 0.183,14.551 -2.19,22.253 -2.383,7.735 -6.959,14.079 -12.881,17.862 -7.868,5.023 -17.941,5.701 -26.757,5.701 -2.156,0 -4.315,-0.045 -6.327,-0.091 l -133.94,-1.26 c -10.873,-0.254 -21.218,-0.994 -28.276,-7.163 -4.891,-4.277 -6.862,-10.225 -7.654,-14.46 -1.027,-5.498 -0.755,-11.193 -0.493,-16.7 0.333,-6.982 0.677,-14.201 2.485,-21.041 1.995,-7.548 5.658,-13.722 10.594,-17.856 4.728,-3.959 11.398,-6.674 19.289,-7.851 3.736,-0.556 7.837,-0.816 12.905,-0.816 2.971,0 5.962,0.086 8.855,0.168 l 121.445,1.196 c 1.998,0.058 4.149,0.129 6.342,0.255 C -0.037,-0.001 -0.019,0 0,0 m 22.797,-20.416 c -0.282,0 -0.56,0.122 -0.75,0.353 -6.017,7.255 -13.711,13.51 -22.265,18.102 -2.135,-0.119 -4.287,-0.188 -6.124,-0.242 l -121.445,-1.194 c -2.906,-0.085 -5.912,-0.171 -8.911,-0.171 -5.166,0 -9.358,0.266 -13.192,0.838 -8.363,1.248 -15.177,4.035 -20.252,8.284 -5.246,4.393 -9.128,10.912 -11.226,18.85 -1.861,7.039 -2.21,14.363 -2.548,21.446 -0.268,5.619 -0.544,11.429 0.524,17.15 0.849,4.539 2.975,10.924 8.287,15.568 7.548,6.599 18.267,7.382 29.512,7.644 l 133.94,1.26 c 2.024,0.048 4.197,0.091 6.372,0.091 9.097,0 19.515,-0.713 27.803,-6.006 6.313,-4.031 11.177,-10.754 13.697,-18.93 2.458,-7.981 2.506,-16.428 2.273,-22.896 C 38.284,33.943 37.766,27.146 35.496,20.611 33.821,15.793 30.429,9.089 23.776,4.514 22.984,3.97 22.11,3.443 21.109,2.907 20.135,1.922 19.446,0.578 19.165,-0.896 18.76,-3.019 19.142,-5.23 19.52,-6.921 c 0.932,-4.162 2.582,-8.225 4.178,-12.155 0.181,-0.445 0.01,-0.956 -0.402,-1.202 -0.156,-0.093 -0.328,-0.138 -0.499,-0.138" /></g><g
           transform="translate(184.6594,20.9162)"
           id="g24"><path
             id="path26"
             style="fill:none;stroke:#000000;stroke-width:1;stroke-linecap:butt;stroke-linejoin:miter;stroke-miterlimit:10;stroke-dasharray:none;stroke-opacity:1"
             d="m 0,0 c 0.159,0 0.316,-0.039 0.457,-0.114 7.223,-3.844 13.856,-8.845 19.436,-14.628 -0.899,2.41 -1.708,4.872 -2.274,7.396 -0.419,1.874 -0.839,4.342 -0.366,6.814 0.364,1.912 1.286,3.662 2.597,4.93 0.065,0.064 0.139,0.119 0.22,0.161 0.989,0.524 1.839,1.034 2.603,1.559 6.218,4.277 9.405,10.589 10.983,15.132 2.186,6.291 2.688,12.908 2.891,18.551 0.227,6.315 0.183,14.551 -2.19,22.253 -2.383,7.735 -6.959,14.079 -12.881,17.862 -7.868,5.023 -17.941,5.701 -26.757,5.701 -2.156,0 -4.315,-0.045 -6.327,-0.091 l -133.94,-1.26 c -10.873,-0.254 -21.218,-0.994 -28.276,-7.163 -4.891,-4.277 -6.862,-10.225 -7.654,-14.46 -1.027,-5.498 -0.755,-11.193 -0.493,-16.7 0.333,-6.982 0.677,-14.201 2.485,-21.041 1.995,-7.548 5.658,-13.722 10.594,-17.856 4.728,-3.959 11.398,-6.674 19.289,-7.851 3.736,-0.556 7.837,-0.816 12.905,-0.816 2.971,0 5.962,0.086 8.855,0.168 l 121.445,1.196 c 1.998,0.058 4.149,0.129 6.342,0.255 C -0.037,-0.001 -0.019,0 0,0 Z m 22.797,-20.416 c -0.282,0 -0.56,0.122 -0.75,0.353 -6.017,7.255 -13.711,13.51 -22.265,18.102 -2.135,-0.119 -4.287,-0.188 -6.124,-0.242 l -121.445,-1.194 c -2.906,-0.085 -5.912,-0.171 -8.911,-0.171 -5.166,0 -9.358,0.266 -13.192,0.838 -8.363,1.248 -15.177,4.035 -20.252,8.284 -5.246,4.393 -9.128,10.912 -11.226,18.85 -1.861,7.039 -2.21,14.363 -2.548,21.446 -0.268,5.619 -0.544,11.429 0.524,17.15 0.849,4.539 2.975,10.924 8.287,15.568 7.548,6.599 18.267,7.382 29.512,7.644 l 133.94,1.26 c 2.024,0.048 4.197,0.091 6.372,0.091 9.097,0 19.515,-0.713 27.803,-6.006 6.313,-4.031 11.177,-10.754 13.697,-18.93 2.458,-7.981 2.506,-16.428 2.273,-22.896 C 38.284,33.943 37.766,27.146 35.496,20.611 33.821,15.793 30.429,9.089 23.776,4.514 22.984,3.97 22.11,3.443 21.109,2.907 20.135,1.922 19.446,0.578 19.165,-0.896 18.76,-3.019 19.142,-5.23 19.52,-6.921 c 0.932,-4.162 2.582,-8.225 4.178,-12.155 0.181,-0.445 0.01,-0.956 -0.402,-1.202 -0.156,-0.093 -0.328,-0.138 -0.499,-0.138 z" /></g></g></g></g></svg>