<svg xmlns="http://www.w3.org/2000/svg" height="145.305" width="298.323">
    <defs>
        <clipPath id="a" clipPathUnits="userSpaceOnUse">
            <path d="M0 108.979h223.742V0H0z"/>
        </clipPath>
    </defs>
    <g clip-path="url(#a)" transform="matrix(1.33333 0 0 -1.33333 0 145.305)">
        <path d="M184.66 20.916a.973.973 0 00.456-.114c7.223-3.844 13.856-8.845 19.436-14.628-.899 2.41-1.708 4.872-2.274 7.396-.419 1.874-.839 4.342-.366 6.814.364 1.912 1.286 3.662 2.597 4.93a.916.916 0 00.22.161 26.31 26.31 0 012.603 1.56c6.218 4.276 9.405 10.588 10.983 15.131 2.186 6.291 2.688 12.908 2.891 18.551.227 6.315.183 14.551-2.19 22.253-2.383 7.735-6.959 14.08-12.88 17.862-7.869 5.023-17.942 5.701-26.758 5.701-2.156 0-4.315-.045-6.327-.09l-133.94-1.26c-10.873-.255-21.218-.995-28.276-7.164-4.89-4.277-6.862-10.225-7.654-14.46-1.027-5.498-.755-11.193-.493-16.7.333-6.982.677-14.2 2.485-21.04 1.995-7.549 5.658-13.723 10.594-17.857 4.728-3.959 11.398-6.674 19.29-7.85 3.735-.557 7.836-.817 12.904-.817 2.971 0 5.962.086 8.855.168l121.445 1.196c1.998.058 4.15.13 6.342.255l.056.002M207.456.5a.97.97 0 00-.75.353c-6.017 7.255-13.71 13.51-22.265 18.102a235.12 235.12 0 00-6.124-.242L56.872 17.52c-2.906-.085-5.912-.17-8.91-.17-5.167 0-9.359.265-13.193.837-8.363 1.248-15.177 4.035-20.252 8.284C9.271 30.863 5.39 37.382 3.291 45.32c-1.86 7.04-2.21 14.363-2.548 21.446-.268 5.62-.544 11.43.524 17.15.85 4.54 2.975 10.924 8.287 15.568 7.548 6.6 18.267 7.382 29.512 7.644l133.94 1.26c2.024.048 4.197.091 6.372.091 9.097 0 19.515-.713 27.803-6.006 6.313-4.03 11.177-10.754 13.697-18.93 2.458-7.98 2.506-16.428 2.273-22.896-.208-5.788-.726-12.585-2.996-19.12-1.675-4.818-5.067-11.522-11.72-16.097a28.143 28.143 0 00-2.667-1.607c-.974-.985-1.663-2.329-1.944-3.803-.405-2.123-.023-4.334.355-6.025.932-4.162 2.582-8.225 4.178-12.155a.973.973 0 00-.9-1.34"/>
        <path d="M184.66 20.916a.973.973 0 00.456-.114c7.223-3.844 13.856-8.845 19.436-14.628-.899 2.41-1.708 4.872-2.274 7.396-.419 1.874-.839 4.342-.366 6.814.364 1.912 1.286 3.662 2.597 4.93a.916.916 0 00.22.161 26.31 26.31 0 012.603 1.56c6.218 4.276 9.405 10.588 10.983 15.131 2.186 6.291 2.688 12.908 2.891 18.551.227 6.315.183 14.551-2.19 22.253-2.383 7.735-6.959 14.08-12.88 17.862-7.869 5.023-17.942 5.701-26.758 5.701-2.156 0-4.315-.045-6.327-.09l-133.94-1.26c-10.873-.255-21.218-.995-28.276-7.164-4.89-4.277-6.862-10.225-7.654-14.46-1.027-5.498-.755-11.193-.493-16.7.333-6.982.677-14.2 2.485-21.04 1.995-7.549 5.658-13.723 10.594-17.857 4.728-3.959 11.398-6.674 19.29-7.85 3.735-.557 7.836-.817 12.904-.817 2.971 0 5.962.086 8.855.168l121.445 1.196c1.998.058 4.15.13 6.342.255l.056.002zM207.455.5a.97.97 0 00-.75.353c-6.017 7.255-13.71 13.51-22.265 18.102a235.12 235.12 0 00-6.124-.242L56.872 17.52c-2.906-.085-5.912-.17-8.91-.17-5.167 0-9.359.265-13.193.837-8.363 1.248-15.177 4.035-20.252 8.284C9.271 30.863 5.39 37.382 3.291 45.32c-1.86 7.04-2.21 14.363-2.548 21.446-.268 5.62-.544 11.43.524 17.15.85 4.54 2.975 10.924 8.287 15.568 7.548 6.6 18.267 7.382 29.512 7.644l133.94 1.26c2.024.048 4.197.091 6.372.091 9.097 0 19.515-.713 27.803-6.006 6.313-4.03 11.177-10.754 13.697-18.93 2.458-7.98 2.506-16.428 2.273-22.896-.208-5.788-.726-12.585-2.996-19.12-1.675-4.818-5.067-11.522-11.72-16.097a28.143 28.143 0 00-2.667-1.607c-.974-.985-1.663-2.329-1.944-3.803-.405-2.123-.023-4.334.355-6.025.932-4.162 2.582-8.225 4.178-12.155a.973.973 0 00-.9-1.34z" fill="none" stroke="#000" stroke-miterlimit="10"/>
    </g>
</svg>
