<svg xmlns="http://www.w3.org/2000/svg" height="70.189" width="120.249">
    <defs>
        <clipPath id="a" clipPathUnits="userSpaceOnUse">
            <path d="M0 52.641h90.186V0H0z"/>
        </clipPath>
    </defs>
    <g clip-path="url(#a)" transform="matrix(1.33333 0 0 -1.33333 0 70.189)">
        <path d="M63.788 2.599c-4.783 2.811-9.734 5.886-14.53 8.864-4.73 2.938-9.603 5.958-14.332 8.742l45.282 29.623c-2.72-7.691-5.404-15.481-8.006-23.036-2.732-7.934-5.555-16.13-8.414-24.193M29.103 3.676l.068.944a302.707 302.707 0 001.962 5.778c1.009 2.902 2.05 5.895 2.881 8.706a452.476 452.476 0 007.14-4.298zm-8.336 17.399c-.031 3.516.393 6.967 1.327 10.377a.382.382 0 01.009.149l2.315.748c-.638-5.311-1.228-10.627-1.861-15.938a562.994 562.994 0 00-1.79 4.664m-2.658 7.46c-.176.536-.354 1.072-.521 1.606l.807.261-.286-1.867m1.1 2.129l2.068.669a38.493 38.493 0 01-1.266-8.251 174.214 174.214 0 00-1.375 3.848c.19 1.245.381 2.49.573 3.734M3.221 40.137a997.62 997.62 0 0168.681 9.049L16.795 31.373a434.624 434.624 0 00-7.518 4.841c-1.969 1.288-3.992 2.612-6.056 3.923m73.184 9.015l.362.117-.371-.242c.002.041.007.083.009.125m-2.942-2.044c-.025.359-.05.718-.053 1.076l2.208.714c-.011-.133-.016-.267-.028-.4zm-3.56-.058l2.781.899c.027-.44.06-.879.051-1.317l-2.832-1.853zm-2.879-.93l2.111.682v-2.526l-2.122-1.388c.002 1.077.008 2.154.011 3.232m-2.735-.884l1.966.634c-.004-1.161-.013-2.324-.014-3.486l-2.046-1.339c.025 1.398.074 2.793.094 4.191m-3.2-1.034l2.426.784c-.027-1.485-.086-2.967-.1-4.45l-2.191-1.434c.072 1.701-.124 3.396-.135 5.1m-3.244-1.049l2.478.8c.032-1.791.259-3.574.113-5.367l-2.835-1.854c.085 2.139.149 4.281.244 6.421m-4.578-1.48l3.798 1.228c-.094-2.228-.158-4.457-.253-6.685l-3.544-2.318v7.764zM50.07 40.64l2.43.785v-8.03l-2.672-1.748c.079 2.998.163 5.995.242 8.993m-2.933-.948l2.158.697c-.082-3.084-.169-6.169-.25-9.254l-2.559-1.674c.235 3.342.468 6.684.701 10.027a.337.337 0 01-.05.204m-3.432-1.11l2.712.877-.736-10.525-2.736-1.789.76 11.437m-2.598-.838l1.812.584-.777-11.709-2.579-1.686 1.544 12.811m-3.766-1.218l2.967.959-1.58-13.099-2.365-1.547.978 13.687M33.51 20.972c.301 4.856.604 9.712.906 14.567.001.015-.005.026-.006.039l2.144.693-.997-13.959zm-2.18 13.61l2.304.746-.956-15.368a.338.338 0 01.046-.196c-.833-2.855-1.894-5.922-2.93-8.901l-.219-.634 1.755 24.353m-3.943-1.274a538.844 538.844 0 00-2.136-23.944 404.206 404.206 0 01-2.108 5.53l.007.02c.715 5.895 1.357 11.798 2.067 17.693zM27.32 3.495c-.464 1.413-.965 2.83-1.477 4.247a540.297 540.297 0 012.331 25.821l2.369.765-1.94-26.917c-.448-1.318-.883-2.63-1.283-3.916m54.924 47.836l.001.021a.687.687 0 01.025.316c-.003.027-.012.049-.019.076-.012.043-.016.087-.035.13-.02.04-.051.071-.077.106-.01.014-.01.033-.022.047a.134.134 0 01-.024.016.713.713 0 01-.261.182c-.022.009-.044.01-.066.016a.681.681 0 01-.263.02c-.018-.002-.033.008-.051.005A996.29 996.29 0 001.017 41.35a.708.708 0 01-.308-1.307c2.665-1.662 5.271-3.366 7.793-5.015 2.456-1.607 4.994-3.267 7.594-4.892 1.489-4.841 3.407-9.778 5.262-14.557 1.878-4.834 3.821-9.833 5.305-14.702l.008-.017c.008-.023.021-.041.031-.063a.68.68 0 01.1-.163c.007-.01.009-.021.018-.03.011-.012.026-.016.037-.026a.725.725 0 01.163-.117c.023-.011.042-.025.065-.034a.73.73 0 01.259-.052.73.73 0 01.239.045c.02.007.038.022.059.032a.69.69 0 01.155.096l.024.016 14.586 13.471a1746.2 1746.2 0 006.103-3.776C53.561 7.121 58.784 3.877 63.811.942a.72.72 0 01.601-.054c.198.073.354.23.425.429 2.959 8.329 5.881 16.811 8.706 25.013 2.823 8.2 5.743 16.678 8.701 25.001"/>
        <path d="M63.788 2.599c-4.783 2.811-9.734 5.886-14.53 8.864-4.73 2.938-9.603 5.958-14.332 8.742l45.282 29.623c-2.72-7.691-5.404-15.481-8.006-23.036-2.732-7.934-5.555-16.13-8.414-24.193zM29.103 3.676l.068.944a302.707 302.707 0 001.962 5.778c1.009 2.902 2.05 5.895 2.881 8.706a452.476 452.476 0 007.14-4.298zm-8.336 17.399c-.031 3.516.393 6.967 1.327 10.377a.382.382 0 01.009.149l2.315.748c-.638-5.311-1.228-10.627-1.861-15.938a562.994 562.994 0 00-1.79 4.664zm-2.658 7.46c-.176.536-.354 1.072-.521 1.606l.807.261-.286-1.867zm1.1 2.129l2.068.669a38.493 38.493 0 01-1.266-8.251 174.214 174.214 0 00-1.375 3.848c.19 1.245.381 2.49.573 3.734zM3.221 40.137a997.62 997.62 0 0168.681 9.049L16.795 31.373a434.624 434.624 0 00-7.518 4.841c-1.969 1.288-3.992 2.612-6.056 3.923zm73.184 9.015l.362.117-.371-.242c.002.041.007.083.009.125zm-2.942-2.044c-.025.359-.05.718-.053 1.076l2.208.714c-.011-.133-.016-.267-.028-.4zm-3.56-.058l2.781.899c.027-.44.06-.879.051-1.317l-2.832-1.853zm-2.879-.93l2.111.682v-2.526l-2.122-1.388c.002 1.077.008 2.154.011 3.232zm-2.735-.884l1.966.634c-.004-1.161-.013-2.324-.014-3.486l-2.046-1.339c.025 1.398.074 2.793.094 4.191zm-3.2-1.034l2.426.784c-.027-1.485-.086-2.967-.1-4.45l-2.191-1.434c.072 1.701-.124 3.396-.135 5.1zm-3.244-1.049l2.478.8c.032-1.791.259-3.574.113-5.367l-2.835-1.854c.085 2.139.149 4.281.244 6.421zm-4.578-1.48l3.798 1.228c-.094-2.228-.158-4.457-.253-6.685l-3.544-2.318v7.764zM50.07 40.64l2.43.785v-8.03l-2.672-1.748c.079 2.998.163 5.995.242 8.993zm-2.933-.948l2.158.697c-.082-3.084-.169-6.169-.25-9.254l-2.559-1.674c.235 3.342.468 6.684.701 10.027a.337.337 0 01-.05.204zm-3.432-1.11l2.712.877-.736-10.525-2.736-1.789.76 11.437zm-2.598-.838l1.812.584-.777-11.709-2.579-1.686 1.544 12.811zm-3.766-1.218l2.967.959-1.58-13.099-2.365-1.547.978 13.687zM33.51 20.972c.301 4.856.604 9.712.906 14.567.001.015-.005.026-.006.039l2.144.693-.997-13.959zm-2.18 13.61l2.304.746-.956-15.368a.338.338 0 01.046-.196c-.833-2.855-1.894-5.922-2.93-8.901l-.219-.634 1.755 24.353zm-3.943-1.274a538.844 538.844 0 00-2.136-23.944 404.206 404.206 0 01-2.108 5.53l.007.02c.715 5.895 1.357 11.798 2.067 17.693zM27.32 3.495c-.464 1.413-.965 2.83-1.477 4.247a540.297 540.297 0 012.331 25.821l2.369.765-1.94-26.917c-.448-1.318-.883-2.63-1.283-3.916zm54.924 47.836l.001.021a.687.687 0 01.025.316c-.003.027-.012.049-.019.076-.012.043-.016.087-.035.13-.02.04-.051.071-.077.106-.01.014-.01.033-.022.047a.134.134 0 01-.024.016.713.713 0 01-.261.182c-.022.009-.044.01-.066.016a.681.681 0 01-.263.02c-.018-.002-.033.008-.051.005A996.29 996.29 0 001.017 41.35a.708.708 0 01-.308-1.307c2.665-1.662 5.271-3.366 7.793-5.015 2.456-1.607 4.994-3.267 7.594-4.892 1.489-4.841 3.407-9.778 5.262-14.557 1.878-4.834 3.821-9.833 5.305-14.702l.008-.017c.008-.023.021-.041.031-.063a.68.68 0 01.1-.163c.007-.01.009-.021.018-.03.011-.012.026-.016.037-.026a.725.725 0 01.163-.117c.023-.011.042-.025.065-.034a.73.73 0 01.259-.052.73.73 0 01.239.045c.02.007.038.022.059.032a.69.69 0 01.155.096l.024.016 14.586 13.471a1746.2 1746.2 0 006.103-3.776C53.561 7.121 58.784 3.877 63.811.942a.72.72 0 01.601-.054c.198.073.354.23.425.429 2.959 8.329 5.881 16.811 8.706 25.013 2.823 8.2 5.743 16.678 8.701 25.001z" fill="none" stroke="#000" stroke-width=".75" stroke-miterlimit="10"/>
        <path d="M85.73 40.706c.496 1.014.762 1.603.762 1.603s-.382-.521-1.019-1.452l-1.139-1.685-.7-1.035c-.236-.373-.455-.785-.7-1.203a150.713 150.713 0 01-1.546-2.733c-.559-.97-1.024-2.044-1.55-3.14-.505-1.103-1.085-2.22-1.513-3.424l-1.398-3.606-1.149-3.692c-.415-1.207-.655-2.444-.946-3.622-.27-1.184-.577-2.317-.739-3.42a156.18 156.18 0 01-.489-3.096c-.069-.479-.15-.936-.199-1.375l-.097-1.253-.156-2.033a59.749 59.749 0 01-.106-1.77s.161.63.402 1.73c.258 1.098.524 2.68 1.023 4.54.238.932.493 1.939.742 3.009.235 1.072.627 2.169.928 3.326.325 1.152.648 2.345 1.058 3.532.388 1.194.784 2.406 1.18 3.618l1.326 3.568c.415 1.186.907 2.32 1.37 3.424.483 1.092.857 2.199 1.34 3.179l1.287 2.812c.762 1.762 1.55 3.182 2.028 4.199"/>
        <path d="M85.73 40.706c.496 1.014.762 1.603.762 1.603s-.382-.521-1.019-1.452l-1.139-1.685-.7-1.035c-.236-.373-.455-.785-.7-1.203a150.713 150.713 0 01-1.546-2.733c-.559-.97-1.024-2.044-1.55-3.14-.505-1.103-1.085-2.22-1.513-3.424l-1.398-3.606-1.149-3.692c-.415-1.207-.655-2.444-.946-3.622-.27-1.184-.577-2.317-.739-3.42a156.18 156.18 0 01-.489-3.096c-.069-.479-.15-.936-.199-1.375l-.097-1.253-.156-2.033a59.749 59.749 0 01-.106-1.77s.161.63.402 1.73c.258 1.098.524 2.68 1.023 4.54.238.932.493 1.939.742 3.009.235 1.072.627 2.169.928 3.326.325 1.152.648 2.345 1.058 3.532.388 1.194.784 2.406 1.18 3.618l1.326 3.568c.415 1.186.907 2.32 1.37 3.424.483 1.092.857 2.199 1.34 3.179l1.287 2.812c.762 1.762 1.55 3.182 2.028 4.199z" fill="none" stroke="#000" stroke-width=".75" stroke-miterlimit="10"/>
        <path d="M88.288 29.779l-.764-.98-.462-.607c-.151-.224-.282-.48-.434-.737-.298-.52-.624-1.085-.949-1.698-.352-.605-.57-1.29-.855-1.987-.26-.703-.592-1.413-.744-2.19l-.575-2.322-.282-2.376c-.135-.78-.073-1.562-.078-2.311.021-.75-.019-1.476.098-2.156a59.66 59.66 0 01.286-1.911c.052-.294.084-.577.146-.841l.219-.743.373-1.197c.215-.657.351-1.025.351-1.025s-.011.4-.052 1.088l-.091 1.229c-.052.469-.084 1-.068 1.583.003.58.003 1.207-.017 1.866-.04.658.093 1.353.109 2.068.044.716.069 1.455.2 2.196.106.744.211 1.499.318 2.254l.498 2.22c.135.742.375 1.442.586 2.127.238.673.36 1.378.626 1.97.249.603.466 1.185.668 1.728l.297.779.331.688.525 1.126c.282.629.431.996.431.996s-.258-.3-.691-.837"/>
        <path d="M88.288 29.779l-.764-.98-.462-.607c-.151-.224-.282-.48-.434-.737-.298-.52-.624-1.085-.949-1.698-.352-.605-.57-1.29-.855-1.987-.26-.703-.592-1.413-.744-2.19l-.575-2.322-.282-2.376c-.135-.78-.073-1.562-.078-2.311.021-.75-.019-1.476.098-2.156a59.66 59.66 0 01.286-1.911c.052-.294.084-.577.146-.841l.219-.743.373-1.197c.215-.657.351-1.025.351-1.025s-.011.4-.052 1.088l-.091 1.229c-.052.469-.084 1-.068 1.583.003.58.003 1.207-.017 1.866-.04.658.093 1.353.109 2.068.044.716.069 1.455.2 2.196.106.744.211 1.499.318 2.254l.498 2.22c.135.742.375 1.442.586 2.127.238.673.36 1.378.626 1.97.249.603.466 1.185.668 1.728l.297.779.331.688.525 1.126c.282.629.431.996.431.996s-.258-.3-.691-.837z" fill="none" stroke="#000" stroke-width=".75" stroke-miterlimit="10"/>
    </g>
</svg>
